<?xml version="1.0" encoding="UTF-8" standalone="no"?>
<!-- Created with Inkscape (http://www.inkscape.org/) -->

<svg
   width="210mm"
   height="297mm"
   viewBox="0 0 210 297"
   version="1.1"
   id="svg1"
   inkscape:version="1.3 (0e150ed6c4, 2023-07-21)"
   sodipodi:docname="home.svg"
   xmlns:inkscape="http://www.inkscape.org/namespaces/inkscape"
   xmlns:sodipodi="http://sodipodi.sourceforge.net/DTD/sodipodi-0.dtd"
   xmlns="http://www.w3.org/2000/svg"
   xmlns:svg="http://www.w3.org/2000/svg">
  <sodipodi:namedview
     id="namedview1"
     pagecolor="#505050"
     bordercolor="#eeeeee"
     borderopacity="1"
     inkscape:showpageshadow="0"
     inkscape:pageopacity="0"
     inkscape:pagecheckerboard="0"
     inkscape:deskcolor="#d1d1d1"
     inkscape:document-units="mm"
     inkscape:zoom="0.55055723"
     inkscape:cx="70.837323"
     inkscape:cy="590.31102"
     inkscape:window-width="1876"
     inkscape:window-height="1036"
     inkscape:window-x="0"
     inkscape:window-y="0"
     inkscape:window-maximized="1"
     inkscape:current-layer="layer1" />
  <defs
     id="defs1" />
  <g
     inkscape:label="Layer 1"
     inkscape:groupmode="layer"
     id="layer1">
    <path
       id="rect1"
       style="display:inline;fill:#000000;stroke:#cecece;stroke-width:0;stroke-linejoin:round;stroke-opacity:0.560433"
       d="M 51.300747,4.9998651e-7 25.636678,20.362065 4.9990629e-7,40.730848 16.062069,40.690023 c -0.256491,1.030565 -0.407211,2.103666 -0.407211,3.215825 v 46.176508 c 0,7.31707 5.890396,13.207984 13.207463,13.207984 h 45.935176 c 7.31708,0 13.20798,-5.890914 13.20798,-13.207984 V 43.905848 c 0,-1.18095 -0.16817,-2.318655 -0.4563,-3.406511 L 103.66034,40.454379 77.493977,20.223572 Z M 33.258435,55.326336 h 11.128003 c 2.08037,0 3.755326,1.67496 3.755326,3.75533 v 10.67532 c 0,2.08036 -1.674956,3.75532 -3.755326,3.75532 H 33.258435 c -2.08037,0 -3.754809,-1.67496 -3.754809,-3.75532 v -10.67532 c 0,-2.08037 1.674439,-3.75533 3.754809,-3.75533 z"
       inkscape:export-filename="home.png"
       inkscape:export-xdpi="96"
       inkscape:export-ydpi="96" />
  </g>
</svg>
