<?xml version="1.0" encoding="UTF-8" standalone="no"?>
<!-- Created with Inkscape (http://www.inkscape.org/) -->

<svg
   width="210mm"
   height="297mm"
   viewBox="0 0 210 297"
   version="1.1"
   id="svg1"
   xml:space="preserve"
   sodipodi:docname="mastui_zen.svg"
   inkscape:version="1.3.2 (091e20ef0f, 2023-11-25, custom)"
   xmlns:inkscape="http://www.inkscape.org/namespaces/inkscape"
   xmlns:sodipodi="http://sodipodi.sourceforge.net/DTD/sodipodi-0.dtd"
   xmlns:xlink="http://www.w3.org/1999/xlink"
   xmlns="http://www.w3.org/2000/svg"
   xmlns:svg="http://www.w3.org/2000/svg"><sodipodi:namedview
     id="namedview1"
     pagecolor="#505050"
     bordercolor="#eeeeee"
     borderopacity="1"
     inkscape:showpageshadow="0"
     inkscape:pageopacity="0"
     inkscape:pagecheckerboard="0"
     inkscape:deskcolor="#d1d1d1"
     inkscape:document-units="mm"
     inkscape:zoom="4.1474471"
     inkscape:cx="376.85833"
     inkscape:cy="388.91394"
     inkscape:window-width="1920"
     inkscape:window-height="1080"
     inkscape:window-x="1920"
     inkscape:window-y="0"
     inkscape:window-maximized="1"
     inkscape:current-layer="layer1" /><defs
     id="defs1" /><g
     inkscape:label="Layer 1"
     inkscape:groupmode="layer"
     id="layer1"><image
       width="250.29584"
       height="149.75417"
       preserveAspectRatio="none"
       style="display:none;image-rendering:optimizeQuality"
       xlink:href="../../../mz_40mm_06_proof%20(1).png"
       id="image1"
       x="-20.133337"
       y="73.622917" /><circle
       style="display:inline;fill:#0077c0;fill-opacity:1;stroke:#cecece;stroke-width:0;stroke-linejoin:round;stroke-opacity:0.560433"
       id="path1"
       cx="102.88426"
       cy="105.86579"
       inkscape:label="base"
       r="19.5" /><ellipse
       style="display:none;fill:#000000;stroke:#cecece;stroke-width:0;stroke-linejoin:round;stroke-opacity:0.560433"
       id="path2"
       cx="97.541534"
       cy="103.1442"
       rx="1.9420805"
       ry="0.24849352" /><path
       id="circle2"
       style="display:inline;fill:#a4dffa;fill-opacity:1;stroke:#cecece;stroke-width:0;stroke-linejoin:round;stroke-opacity:0.560433"
       inkscape:label="Outer_Ring"
       d="m 102.88425,86.365794 a 19.499786,19.500042 0 0 0 -19.49999,19.500256 19.499786,19.500042 0 0 0 19.49999,19.49974 19.499786,19.500042 0 0 0 19.50001,-19.49974 19.499786,19.500042 0 0 0 -19.50001,-19.500256 z m 0.075,1.715883 a 17.771957,17.77219 0 0 1 17.77237,17.772133 17.771957,17.77219 0 0 1 -17.7724,17.77213 17.771957,17.77219 0 0 1 -17.771892,-17.77213 17.771957,17.77219 0 0 1 17.771892,-17.772133 z" /><path
       id="circle4"
       style="display:inline;fill:#a4dffa;fill-opacity:1;stroke:#cecece;stroke-width:0;stroke-linejoin:round;stroke-opacity:0.560433"
       inkscape:label="middle_ring"
       d="m 103.13426,88.865938 a 17.25,17.25 0 0 0 -17.250106,17.250102 17.25,17.25 0 0 0 17.250106,17.2496 17.25,17.25 0 0 0 17.25011,-17.2496 17.25,17.25 0 0 0 -17.25011,-17.250102 z m 0,1.749764 a 15.5,15.5 0 0 1 15.49983,15.500338 15.5,15.5 0 0 1 -15.49983,15.49983 15.5,15.5 0 0 1 -15.499825,-15.49983 15.5,15.5 0 0 1 15.499825,-15.500338 z" /><path
       id="circle6"
       style="display:inline;fill:#a4dffa;fill-opacity:1;stroke:#cecece;stroke-width:0;stroke-linejoin:round;stroke-opacity:0.560433"
       inkscape:label="inner_ring"
       d="m 103.13426,91.115934 a 15,15 0 0 0 -15.000115,15.000116 15,15 0 0 0 15.000115,14.9996 15,15 0 0 0 15.00012,-14.9996 15,15 0 0 0 -15.00012,-15.000116 z m 0,1.299662 A 13.699887,13.7 0 0 1 116.8342,106.11605 13.699887,13.7 0 0 1 103.13426,119.81599 13.699887,13.7 0 0 1 89.434324,106.11605 13.699887,13.7 0 0 1 103.13426,92.415596 Z" /></g></svg>
