<?xml version="1.0" encoding="UTF-8" standalone="no"?>
<!-- Created with Inkscape (http://www.inkscape.org/) -->

<svg
   width="210mm"
   height="297mm"
   viewBox="0 0 210 297"
   version="1.1"
   id="svg1"
   inkscape:version="1.3 (0e150ed6c4, 2023-07-21)"
   sodipodi:docname="trash.svg"
   xmlns:inkscape="http://www.inkscape.org/namespaces/inkscape"
   xmlns:sodipodi="http://sodipodi.sourceforge.net/DTD/sodipodi-0.dtd"
   xmlns="http://www.w3.org/2000/svg"
   xmlns:svg="http://www.w3.org/2000/svg">
  <sodipodi:namedview
     id="namedview1"
     pagecolor="#505050"
     bordercolor="#eeeeee"
     borderopacity="1"
     inkscape:showpageshadow="0"
     inkscape:pageopacity="0"
     inkscape:pagecheckerboard="0"
     inkscape:deskcolor="#d1d1d1"
     inkscape:document-units="mm"
     inkscape:zoom="16.563583"
     inkscape:cx="20.8892"
     inkscape:cy="19.983598"
     inkscape:window-width="1876"
     inkscape:window-height="1036"
     inkscape:window-x="0"
     inkscape:window-y="0"
     inkscape:window-maximized="1"
     inkscape:current-layer="layer1" />
  <defs
     id="defs1" />
  <g
     inkscape:label="Layer 1"
     inkscape:groupmode="layer"
     id="layer1"
     transform="matrix(0.04793471,0,0,0.04793471,-2.1703952e-6,-1.6117123e-8)"
     inkscape:export-filename="trash.svg"
     inkscape:export-xdpi="96"
     inkscape:export-ydpi="96">
    <g
       id="g13"
       transform="matrix(1.1609037,0,0,0.94877431,-75.50409,-66.184239)"
       inkscape:export-filename="trash"
       inkscape:export-xdpi="96"
       inkscape:export-ydpi="96">
      <path
         id="rect4"
         style="fill:#1a1a1a;stroke:#cecece;stroke-width:0;stroke-linejoin:round;stroke-opacity:0.560433"
         d="m 86.491675,90.231594 c -5.037428,0 -9.092853,4.05519 -9.092853,9.092637 V 225.81889 c 0,5.03743 4.055425,9.09264 9.092853,9.09264 h 71.205885 c 5.03746,0 9.09287,-4.05521 9.09287,-9.09264 V 99.324231 c 0,-5.037447 -4.05541,-9.092637 -9.09287,-9.092637 z M 139.7059,115.77257 c 2.03486,0 3.67286,2.53846 3.67286,5.6912 v 81.06306 c 0,3.15275 -1.63792,5.6912 -3.67286,5.6912 -2.03486,0 -3.6733,-2.53845 -3.6733,-5.6912 v -81.06306 c 0,-3.15274 1.6385,-5.6912 3.6733,-5.6912 z m -17.61151,0.46126 c 2.03488,0 3.6733,2.5379 3.6733,5.69065 v 81.0636 c 0,3.15275 -1.6385,5.69067 -3.6733,5.69067 -2.03486,0 -3.67283,-2.53792 -3.67283,-5.69067 v -81.0636 c 0,-3.15275 1.63791,-5.69065 3.67283,-5.69065 z m -17.61104,0.46086 c 2.03486,0 3.67283,2.53847 3.67283,5.6912 v 81.0636 c 0,3.15275 -1.63791,5.69067 -3.67283,5.69067 -2.03488,0 -3.67331,-2.53792 -3.67331,-5.69067 v -81.0636 c 0,-3.15273 1.63851,-5.6912 3.67331,-5.6912 z" />
      <rect
         style="fill:#1a1a1a;stroke:#cecece;stroke-width:0;stroke-linejoin:round;stroke-opacity:0.560433"
         id="rect2"
         width="114.11098"
         height="15.135542"
         x="65.039062"
         y="69.757622"
         ry="7.567771" />
      <g
         id="g12"
         transform="translate(0.4214462)" />
    </g>
  </g>
</svg>
