<svg id="visual" viewBox="0 0 900 600" width="900" height="600" xmlns="http://www.w3.org/2000/svg" xmlns:xlink="http://www.w3.org/1999/xlink" version="1.1"><rect x="0" y="0" width="900" height="600" fill="#f5fbff"></rect><path d="M0 357L15 352C30 347 60 337 90 334.3C120 331.7 150 336.3 180 341.7C210 347 240 353 270 356.8C300 360.7 330 362.3 360 364.7C390 367 420 370 450 368.7C480 367.3 510 361.7 540 353C570 344.3 600 332.7 630 321.7C660 310.7 690 300.3 720 302.5C750 304.7 780 319.3 810 331.7C840 344 870 354 885 359L900 364L900 601L885 601C870 601 840 601 810 601C780 601 750 601 720 601C690 601 660 601 630 601C600 601 570 601 540 601C510 601 480 601 450 601C420 601 390 601 360 601C330 601 300 601 270 601C240 601 210 601 180 601C150 601 120 601 90 601C60 601 30 601 15 601L0 601Z" fill="#69faf1"></path><path d="M0 395L15 399.7C30 404.3 60 413.7 90 414.8C120 416 150 409 180 403.3C210 397.7 240 393.3 270 396.3C300 399.3 330 409.7 360 408.7C390 407.7 420 395.3 450 385C480 374.7 510 366.3 540 366.5C570 366.7 600 375.3 630 385.2C660 395 690 406 720 413.5C750 421 780 425 810 414.2C840 403.3 870 377.7 885 364.8L900 352L900 601L885 601C870 601 840 601 810 601C780 601 750 601 720 601C690 601 660 601 630 601C600 601 570 601 540 601C510 601 480 601 450 601C420 601 390 601 360 601C330 601 300 601 270 601C240 601 210 601 180 601C150 601 120 601 90 601C60 601 30 601 15 601L0 601Z" fill="#00d6ff"></path><path d="M0 437L15 442C30 447 60 457 90 456.5C120 456 150 445 180 439.3C210 433.7 240 433.3 270 427.7C300 422 330 411 360 413C390 415 420 430 450 436C480 442 510 439 540 434.3C570 429.7 600 423.3 630 426C660 428.7 690 440.3 720 447.2C750 454 780 456 810 458.2C840 460.3 870 462.7 885 463.8L900 465L900 601L885 601C870 601 840 601 810 601C780 601 750 601 720 601C690 601 660 601 630 601C600 601 570 601 540 601C510 601 480 601 450 601C420 601 390 601 360 601C330 601 300 601 270 601C240 601 210 601 180 601C150 601 120 601 90 601C60 601 30 601 15 601L0 601Z" fill="#00aaff"></path><path d="M0 483L15 478.5C30 474 60 465 90 462.2C120 459.3 150 462.7 180 463C210 463.3 240 460.7 270 459.3C300 458 330 458 360 468.3C390 478.7 420 499.3 450 506.7C480 514 510 508 540 506.7C570 505.3 600 508.7 630 503.2C660 497.7 690 483.3 720 474.2C750 465 780 461 810 468.7C840 476.3 870 495.7 885 505.3L900 515L900 601L885 601C870 601 840 601 810 601C780 601 750 601 720 601C690 601 660 601 630 601C600 601 570 601 540 601C510 601 480 601 450 601C420 601 390 601 360 601C330 601 300 601 270 601C240 601 210 601 180 601C150 601 120 601 90 601C60 601 30 601 15 601L0 601Z" fill="#3f74f1"></path><path d="M0 527L15 528C30 529 60 531 90 531.8C120 532.7 150 532.3 180 529.2C210 526 240 520 270 522C300 524 330 534 360 535.8C390 537.7 420 531.3 450 533.7C480 536 510 547 540 546.8C570 546.7 600 535.3 630 534.8C660 534.3 690 544.7 720 543.3C750 542 780 529 810 526.8C840 524.7 870 533.3 885 537.7L900 542L900 601L885 601C870 601 840 601 810 601C780 601 750 601 720 601C690 601 660 601 630 601C600 601 570 601 540 601C510 601 480 601 450 601C420 601 390 601 360 601C330 601 300 601 270 601C240 601 210 601 180 601C150 601 120 601 90 601C60 601 30 601 15 601L0 601Z" fill="#8617be"></path></svg>